<svg width="40" height="40" viewBox="0 0 40 40" fill="none" xmlns="http://www.w3.org/2000/svg">
<path d="M6.25 37.75V2.25H35C35.4135 2.25 35.75 2.5865 35.75 3V37C35.75 37.4135 35.4135 37.75 35 37.75H6.25Z" fill="#95847F"/>
<path d="M35 2.5C35.2755 2.5 35.5 2.7245 35.5 3V37C35.5 37.2755 35.2755 37.5 35 37.5H6.5V2.5H35ZM35 2H6V38H35C35.5525 38 36 37.5525 36 37V3C36 2.4475 35.5525 2 35 2Z" fill="#7F6B65"/>
<path d="M9 38H5C4.4475 38 4 37.5525 4 37V3C4 2.4475 4.4475 2 5 2H9V38Z" fill="#7F6B65"/>
<path d="M22 12C20.9391 12 19.9217 12.4214 19.1716 13.1716C18.4214 13.9217 18 14.9391 18 16C18 17.0609 18.4214 18.0783 19.1716 18.8284C19.9217 19.5786 20.9391 20 22 20C23.0609 20 24.0783 19.5786 24.8284 18.8284C25.5786 18.0783 26 17.0609 26 16C26 14.9391 25.5786 13.9217 24.8284 13.1716C24.0783 12.4214 23.0609 12 22 12V12ZM28 27C28 23.686 25.314 21 22 21C18.6865 21 16 23.686 16 27H28Z" fill="#FFFEF0"/>
</svg>
