<svg width="508" height="126" viewBox="0 0 508 126" fill="none" xmlns="http://www.w3.org/2000/svg">
<path d="M9.68067 127.111V0.888889H133.378C135.157 0.888889 136.605 2.08533 136.605 3.55556V124.444C136.605 125.915 135.157 127.111 133.378 127.111H9.68067Z" fill="#95847F"/>
<path d="M133.378 1.77778C134.564 1.77778 135.529 2.576 135.529 3.55556V124.444C135.529 125.424 134.564 126.222 133.378 126.222H10.7563V1.77778H133.378ZM133.378 0H8.60504V128H133.378C135.755 128 137.681 126.409 137.681 124.444V3.55556C137.681 1.59111 135.755 0 133.378 0Z" fill="#7F6B65"/>
<path d="M21.5126 128H4.30252C1.92538 128 0 126.409 0 124.444V3.55556C0 1.59111 1.92538 0 4.30252 0H21.5126V128Z" fill="#7F6B65"/>
<path d="M77.4454 35.5556C72.881 35.5556 68.5035 37.054 65.276 39.7211C62.0485 42.3883 60.2353 46.0058 60.2353 49.7778C60.2353 53.5497 62.0485 57.1672 65.276 59.8344C68.5035 62.5016 72.881 64 77.4454 64C82.0098 64 86.3872 62.5016 89.6147 59.8344C92.8423 57.1672 94.6555 53.5497 94.6555 49.7778C94.6555 46.0058 92.8423 42.3883 89.6147 39.7211C86.3872 37.054 82.0098 35.5556 77.4454 35.5556V35.5556ZM103.261 88.8889C103.261 77.1058 91.7039 67.5556 77.4454 67.5556C63.189 67.5556 51.6302 77.1058 51.6302 88.8889H103.261Z" fill="#FFFEF0"/>
<path d="M147.536 81.5556V74.8173H150.661V57.2001H147.536V50.4618H164.313C168.558 50.4618 171.761 51.2886 173.922 52.9423C176.084 54.5829 177.165 57.0438 177.165 60.3251C177.165 63.5022 176.09 65.911 173.942 67.5517C171.794 69.1793 168.649 69.9931 164.508 69.9931H160.583V74.8173H166.247V81.5556H147.536ZM163.18 57.0048H160.583V64.036H162.985C164.313 64.036 165.309 63.7561 165.973 63.1962C166.637 62.6363 166.969 61.7444 166.969 60.5204C166.969 59.2834 166.644 58.3915 165.993 57.8446C165.355 57.2847 164.417 57.0048 163.18 57.0048ZM179.294 81.5556V74.8173H182.419V57.2001H179.294V50.4618H194.977V57.2001H192.34V62.6688H200.544V57.2001H197.907V50.4618H213.59V57.2001H210.465V74.8173H213.59V81.5556H197.907V74.8173H200.544V69.0751H192.34V74.8173H194.977V81.5556H179.294ZM231.891 82.122C228.675 82.122 225.895 81.4774 223.551 80.1884C221.221 78.8863 219.424 77.0308 218.161 74.622C216.898 72.2131 216.266 69.355 216.266 66.0477C216.266 62.7144 216.898 59.8433 218.161 57.4345C219.424 55.0126 221.221 53.1506 223.551 51.8485C225.895 50.5464 228.675 49.8954 231.891 49.8954C235.12 49.8954 237.9 50.5464 240.231 51.8485C242.562 53.1506 244.359 55.0126 245.622 57.4345C246.885 59.8433 247.516 62.7144 247.516 66.0477C247.516 69.355 246.885 72.2131 245.622 74.622C244.359 77.0308 242.562 78.8863 240.231 80.1884C237.9 81.4774 235.12 82.122 231.891 82.122ZM231.891 75.3837C233.35 75.3837 234.469 74.5894 235.251 73.0009C236.032 71.4123 236.422 69.0751 236.422 65.9892C236.422 62.9032 236.032 60.566 235.251 58.9774C234.469 57.3889 233.35 56.5946 231.891 56.5946C230.433 56.5946 229.313 57.3889 228.532 58.9774C227.751 60.566 227.36 62.9032 227.36 65.9892C227.36 69.0751 227.751 71.4123 228.532 73.0009C229.313 74.5894 230.433 75.3837 231.891 75.3837ZM270.368 81.5751L259.684 63.7821V74.8173H262.809V81.5556H250.192V74.8173H253.317V57.2001H250.192V50.4618H264.157L274.879 68.2548V57.2001H271.754V50.4618H284.372V57.2001H281.247V81.5556L270.368 81.5751ZM286.872 81.5556V74.8173H289.997V57.2001H286.872V50.4618H314.528V62.8251H308.083L307.399 57.1024H299.919V62.3759H305.192V69.0165H299.919V74.9149H307.399L308.083 68.3329H314.528V81.5556H286.872ZM318.161 81.5556V74.8173H321.286V57.2001H318.161V50.4618H335.016C339.183 50.4618 342.327 51.178 344.45 52.6102C346.585 54.0425 347.653 56.178 347.653 59.0165C347.653 60.5139 347.282 61.842 346.54 63.0009C345.81 64.1597 344.749 65.0451 343.356 65.6571C344.853 66.2561 346.032 67.161 346.891 68.372C347.751 69.5699 348.18 71.0087 348.18 72.6884C348.18 75.5399 347.139 77.7339 345.055 79.2704C342.972 80.7938 339.99 81.5556 336.11 81.5556H318.161ZM333.825 57.0048H331.208V62.9813H333.825C336.247 62.9813 337.458 61.9852 337.458 59.9931C337.458 58.0009 336.247 57.0048 333.825 57.0048ZM331.208 75.0126H334.235C336.735 75.0126 337.985 73.9123 337.985 71.7118C337.985 69.5113 336.735 68.411 334.235 68.411H331.208V75.0126ZM366.618 82.122C363.402 82.122 360.622 81.4774 358.278 80.1884C355.947 78.8863 354.15 77.0308 352.887 74.622C351.624 72.2131 350.993 69.355 350.993 66.0477C350.993 62.7144 351.624 59.8433 352.887 57.4345C354.15 55.0126 355.947 53.1506 358.278 51.8485C360.622 50.5464 363.402 49.8954 366.618 49.8954C369.847 49.8954 372.627 50.5464 374.958 51.8485C377.288 53.1506 379.085 55.0126 380.348 57.4345C381.611 59.8433 382.243 62.7144 382.243 66.0477C382.243 69.355 381.611 72.2131 380.348 74.622C379.085 77.0308 377.288 78.8863 374.958 80.1884C372.627 81.4774 369.847 82.122 366.618 82.122ZM366.618 75.3837C368.076 75.3837 369.196 74.5894 369.977 73.0009C370.758 71.4123 371.149 69.0751 371.149 65.9892C371.149 62.9032 370.758 60.566 369.977 58.9774C369.196 57.3889 368.076 56.5946 366.618 56.5946C365.159 56.5946 364.04 57.3889 363.258 58.9774C362.477 60.566 362.087 62.9032 362.087 65.9892C362.087 69.0751 362.477 71.4123 363.258 73.0009C364.04 74.5894 365.159 75.3837 366.618 75.3837ZM400.524 82.122C397.308 82.122 394.528 81.4774 392.184 80.1884C389.853 78.8863 388.057 77.0308 386.794 74.622C385.531 72.2131 384.899 69.355 384.899 66.0477C384.899 62.7144 385.531 59.8433 386.794 57.4345C388.057 55.0126 389.853 53.1506 392.184 51.8485C394.528 50.5464 397.308 49.8954 400.524 49.8954C403.753 49.8954 406.533 50.5464 408.864 51.8485C411.195 53.1506 412.991 55.0126 414.254 57.4345C415.517 59.8433 416.149 62.7144 416.149 66.0477C416.149 69.355 415.517 72.2131 414.254 74.622C412.991 77.0308 411.195 78.8863 408.864 80.1884C406.533 81.4774 403.753 82.122 400.524 82.122ZM400.524 75.3837C401.982 75.3837 403.102 74.5894 403.883 73.0009C404.665 71.4123 405.055 69.0751 405.055 65.9892C405.055 62.9032 404.665 60.566 403.883 58.9774C403.102 57.3889 401.982 56.5946 400.524 56.5946C399.066 56.5946 397.946 57.3889 397.165 58.9774C396.383 60.566 395.993 62.9032 395.993 65.9892C395.993 69.0751 396.383 71.4123 397.165 73.0009C397.946 74.5894 399.066 75.3837 400.524 75.3837ZM418.825 81.5556V74.8173H421.95V57.2001H418.825V50.4618H434.235V57.2001H431.872V64.5048L439.528 57.2001H437.165V50.4618H450.016V57.2001H447.379L439.645 64.329H440.387C442.757 64.329 444.521 64.9084 445.68 66.0673C446.839 67.2131 447.445 68.8993 447.497 71.1259L447.536 72.747C447.562 73.4371 447.712 73.9579 447.985 74.3095C448.271 74.648 448.753 74.8173 449.43 74.8173H451.501V81.5556H444.704C442.217 81.5556 440.374 80.9826 439.176 79.8368C437.991 78.678 437.386 76.9852 437.36 74.7587L437.321 72.161C437.282 70.0777 436.318 69.036 434.43 69.036H431.872V74.8173H434.508V81.5556H418.825Z" fill="#676767"/>
</svg>
