<svg width="125" height="40" viewBox="0 0 125 40" fill="none" xmlns="http://www.w3.org/2000/svg">
<path d="M6.25 37.75V2.25H35C35.4135 2.25 35.75 2.5865 35.75 3V37C35.75 37.4135 35.4135 37.75 35 37.75H6.25Z" fill="#95847F"/>
<path d="M35 2.5C35.2755 2.5 35.5 2.7245 35.5 3V37C35.5 37.2755 35.2755 37.5 35 37.5H6.5V2.5H35ZM35 2H6V38H35C35.5525 38 36 37.5525 36 37V3C36 2.4475 35.5525 2 35 2Z" fill="#7F6B65"/>
<path d="M9 38H5C4.4475 38 4 37.5525 4 37V3C4 2.4475 4.4475 2 5 2H9V38Z" fill="#7F6B65"/>
<path d="M22 12C20.9391 12 19.9217 12.4214 19.1716 13.1716C18.4214 13.9217 18 14.9391 18 16C18 17.0609 18.4214 18.0783 19.1716 18.8284C19.9217 19.5786 20.9391 20 22 20C23.0609 20 24.0783 19.5786 24.8284 18.8284C25.5786 18.0783 26 17.0609 26 16C26 14.9391 25.5786 13.9217 24.8284 13.1716C24.0783 12.4214 23.0609 12 22 12V12ZM28 27C28 23.686 25.314 21 22 21C18.6865 21 16 23.686 16 27H28Z" fill="#FFFEF0"/>
<path d="M38.3438 25V23.147H39.2031V18.3022H38.3438V16.4492H42.9575C44.1248 16.4492 45.0057 16.6766 45.6001 17.1313C46.1945 17.5825 46.4917 18.2593 46.4917 19.1616C46.4917 20.0353 46.1963 20.6978 45.6055 21.1489C45.0146 21.5965 44.1499 21.8203 43.0112 21.8203H41.9316V23.147H43.4893V25H38.3438ZM42.646 18.2485H41.9316V20.1821H42.5923C42.9575 20.1821 43.2314 20.1051 43.4141 19.9512C43.5967 19.7972 43.688 19.5519 43.688 19.2153C43.688 18.8752 43.5985 18.6299 43.4194 18.4795C43.244 18.3255 42.9862 18.2485 42.646 18.2485ZM47.0771 25V23.147H47.9365V18.3022H47.0771V16.4492H51.3901V18.3022H50.665V19.8062H52.9209V18.3022H52.1958V16.4492H56.5088V18.3022H55.6494V23.147H56.5088V25H52.1958V23.147H52.9209V21.5679H50.665V23.147H51.3901V25H47.0771ZM61.5415 25.1558C60.6571 25.1558 59.8926 24.9785 59.248 24.624C58.6071 24.266 58.113 23.7557 57.7656 23.0933C57.4183 22.4308 57.2446 21.6449 57.2446 20.7354C57.2446 19.8187 57.4183 19.0291 57.7656 18.3667C58.113 17.7007 58.6071 17.1886 59.248 16.8306C59.8926 16.4725 60.6571 16.2935 61.5415 16.2935C62.4295 16.2935 63.194 16.4725 63.835 16.8306C64.4759 17.1886 64.9701 17.7007 65.3174 18.3667C65.6647 19.0291 65.8384 19.8187 65.8384 20.7354C65.8384 21.6449 65.6647 22.4308 65.3174 23.0933C64.9701 23.7557 64.4759 24.266 63.835 24.624C63.194 24.9785 62.4295 25.1558 61.5415 25.1558ZM61.5415 23.3027C61.9425 23.3027 62.2505 23.0843 62.4653 22.6475C62.6802 22.2106 62.7876 21.5679 62.7876 20.7192C62.7876 19.8706 62.6802 19.2279 62.4653 18.791C62.2505 18.3542 61.9425 18.1357 61.5415 18.1357C61.1405 18.1357 60.8325 18.3542 60.6177 18.791C60.4028 19.2279 60.2954 19.8706 60.2954 20.7192C60.2954 21.5679 60.4028 22.2106 60.6177 22.6475C60.8325 23.0843 61.1405 23.3027 61.5415 23.3027ZM72.1226 25.0054L69.1846 20.1123V23.147H70.0439V25H66.5742V23.147H67.4336V18.3022H66.5742V16.4492H70.4146L73.3633 21.3423V18.3022H72.5039V16.4492H75.9736V18.3022H75.1143V25L72.1226 25.0054ZM76.6611 25V23.147H77.5205V18.3022H76.6611V16.4492H84.2666V19.8491H82.4941L82.3062 18.2754H80.249V19.7256H81.6992V21.5518H80.249V23.1738H82.3062L82.4941 21.3638H84.2666V25H76.6611ZM85.2656 25V23.147H86.125V18.3022H85.2656V16.4492H89.9009C91.0467 16.4492 91.9115 16.6462 92.4951 17.04C93.0824 17.4339 93.376 18.0212 93.376 18.8018C93.376 19.2135 93.2739 19.5788 93.0698 19.8975C92.8693 20.2161 92.5775 20.4596 92.1943 20.6279C92.6061 20.7926 92.9302 21.0415 93.1665 21.3745C93.4028 21.7039 93.521 22.0996 93.521 22.5615C93.521 23.3457 93.2345 23.9491 92.6616 24.3716C92.0887 24.7905 91.2687 25 90.2017 25H85.2656ZM89.5732 18.2485H88.8535V19.8921H89.5732C90.2393 19.8921 90.5723 19.6182 90.5723 19.0703C90.5723 18.5225 90.2393 18.2485 89.5732 18.2485ZM88.8535 23.2007H89.686C90.3735 23.2007 90.7173 22.8981 90.7173 22.293C90.7173 21.6878 90.3735 21.3853 89.686 21.3853H88.8535V23.2007ZM98.5913 25.1558C97.7069 25.1558 96.9424 24.9785 96.2979 24.624C95.6569 24.266 95.1628 23.7557 94.8154 23.0933C94.4681 22.4308 94.2944 21.6449 94.2944 20.7354C94.2944 19.8187 94.4681 19.0291 94.8154 18.3667C95.1628 17.7007 95.6569 17.1886 96.2979 16.8306C96.9424 16.4725 97.7069 16.2935 98.5913 16.2935C99.4793 16.2935 100.244 16.4725 100.885 16.8306C101.526 17.1886 102.02 17.7007 102.367 18.3667C102.715 19.0291 102.888 19.8187 102.888 20.7354C102.888 21.6449 102.715 22.4308 102.367 23.0933C102.02 23.7557 101.526 24.266 100.885 24.624C100.244 24.9785 99.4793 25.1558 98.5913 25.1558ZM98.5913 23.3027C98.9924 23.3027 99.3003 23.0843 99.5151 22.6475C99.73 22.2106 99.8374 21.5679 99.8374 20.7192C99.8374 19.8706 99.73 19.2279 99.5151 18.791C99.3003 18.3542 98.9924 18.1357 98.5913 18.1357C98.1903 18.1357 97.8823 18.3542 97.6675 18.791C97.4526 19.2279 97.3452 19.8706 97.3452 20.7192C97.3452 21.5679 97.4526 22.2106 97.6675 22.6475C97.8823 23.0843 98.1903 23.3027 98.5913 23.3027ZM107.916 25.1558C107.031 25.1558 106.267 24.9785 105.622 24.624C104.981 24.266 104.487 23.7557 104.14 23.0933C103.792 22.4308 103.619 21.6449 103.619 20.7354C103.619 19.8187 103.792 19.0291 104.14 18.3667C104.487 17.7007 104.981 17.1886 105.622 16.8306C106.267 16.4725 107.031 16.2935 107.916 16.2935C108.804 16.2935 109.568 16.4725 110.209 16.8306C110.85 17.1886 111.344 17.7007 111.691 18.3667C112.039 19.0291 112.212 19.8187 112.212 20.7354C112.212 21.6449 112.039 22.4308 111.691 23.0933C111.344 23.7557 110.85 24.266 110.209 24.624C109.568 24.9785 108.804 25.1558 107.916 25.1558ZM107.916 23.3027C108.317 23.3027 108.625 23.0843 108.839 22.6475C109.054 22.2106 109.162 21.5679 109.162 20.7192C109.162 19.8706 109.054 19.2279 108.839 18.791C108.625 18.3542 108.317 18.1357 107.916 18.1357C107.514 18.1357 107.207 18.3542 106.992 18.791C106.777 19.2279 106.669 19.8706 106.669 20.7192C106.669 21.5679 106.777 22.2106 106.992 22.6475C107.207 23.0843 107.514 23.3027 107.916 23.3027ZM112.948 25V23.147H113.808V18.3022H112.948V16.4492H117.186V18.3022H116.536V20.311L118.642 18.3022H117.992V16.4492H121.526V18.3022H120.801L118.674 20.2627H118.878C119.53 20.2627 120.015 20.422 120.333 20.7407C120.652 21.0558 120.819 21.5195 120.833 22.1318L120.844 22.5776C120.851 22.7674 120.892 22.9106 120.967 23.0073C121.046 23.1004 121.179 23.147 121.365 23.147H121.934V25H120.065C119.381 25 118.874 24.8424 118.545 24.5273C118.219 24.2087 118.053 23.7432 118.045 23.1309L118.035 22.4165C118.024 21.8436 117.759 21.5571 117.24 21.5571H116.536V23.147H117.261V25H112.948Z" fill="#676767"/>
</svg>
