<svg width="160" height="160" viewBox="0 0 160 160" fill="none" xmlns="http://www.w3.org/2000/svg">
<path d="M25 151V9H140C141.654 9 143 10.346 143 12V148C143 149.654 141.654 151 140 151H25Z" fill="#806B65" fill-opacity="0.82"/>
<path d="M140 10C141.102 10 142 10.898 142 12V148C142 149.102 141.102 150 140 150H26V10H140ZM140 8H24V152H140C142.21 152 144 150.21 144 148V12C144 9.79 142.21 8 140 8Z" fill="#7F6B65"/>
<path d="M36 152H20C17.79 152 16 150.21 16 148V12C16 9.79 17.79 8 20 8H36V152Z" fill="#806B65"/>
<path d="M88 48C83.7565 48 79.6869 49.6857 76.6863 52.6863C73.6857 55.6869 72 59.7565 72 64C72 68.2435 73.6857 72.3131 76.6863 75.3137C79.6869 78.3143 83.7565 80 88 80C92.2435 80 96.3131 78.3143 99.3137 75.3137C102.314 72.3131 104 68.2435 104 64C104 59.7565 102.314 55.6869 99.3137 52.6863C96.3131 49.6857 92.2435 48 88 48V48ZM112 108C112 94.744 101.256 84 88 84C74.746 84 64 94.744 64 108H112Z" fill="#FFFEF0"/>
</svg>
