<svg width="203" height="210" viewBox="0 0 203 210" fill="none" xmlns="http://www.w3.org/2000/svg">
<path d="M24.416 88.2274C31.6749 80.3285 39.3839 73.195 47.7531 63.6618C50.656 60.2272 54.2924 58.3596 58.2186 57.7042C58.0063 50.9139 57.777 43.9047 57.5308 36.6105C50.2177 37.2451 45.678 43.8228 38.4064 43.3303C17.5073 41.9116 9.02452 51.2105 6.32112 62.4951C6.29565 62.5978 6.27123 62.7015 6.24682 62.8052C5.04319 68.0815 9.36842 76.6078 8.40254 82.0365C7.19466 89.0912 0.783768 88.0511 0.886724 96.7205C0.993926 99.9663 5.09732 108.018 5.51339 110.66C6.79238 117.556 2.89384 118.958 2.93524 118.955C5.09307 119.904 8.99586 121.469 13.0005 121.723C13.4485 119.869 13.8613 118.017 14.2456 116.168C15.3293 118.005 15.3887 121.846 15.3781 121.847C18.1059 122.084 23.2527 122.749 26.0251 122.709C27.7976 120.718 28.7847 118.408 28.7242 116.095C29.7782 106.499 16.2601 96.0869 24.416 88.2274Z" fill="#3D241E"/>
<path d="M97.4133 95.0503C95.4858 92.1467 89.9272 90.1421 90.2233 87.2136C89.6045 81.3369 94.3161 73.5148 88.6217 69.2662C81.4614 63.3148 69.735 56.3503 59.2218 57.5625C59.0435 63.2723 58.8758 68.8275 58.7176 74.2677C58.5616 68.8721 58.396 63.3646 58.2188 57.7046C54.2916 58.36 50.6552 60.2266 47.7523 63.6612C39.3841 73.1954 31.6751 80.3279 24.4162 88.2278C16.2603 96.0863 29.7784 106.5 28.7234 116.095C28.7849 118.408 27.7968 120.718 26.0253 122.709C40.4933 122.499 54.6493 119.045 58.7176 117.973C63.3103 119.182 80.7524 123.432 96.9866 122.621C96.4177 121.795 95.9549 120.904 95.6545 119.923C91.341 112.255 100.902 102.756 97.4133 95.0503Z" fill="#2E1915"/>
<path d="M111.863 110.66C112.316 108.022 116.645 102.114 116.696 98.8661C116.762 90.2113 110.001 86.8089 108.748 79.7023C107.781 74.2404 112.393 68.0691 111.19 62.8053C108.729 52.4384 98.1961 38.838 77.2535 35.9759C64.9051 33.8241 72.5323 37.7077 59.9059 36.6106C59.6607 43.853 59.4335 50.8155 59.2223 57.5622C69.7101 56.4599 69.6506 69.4173 76.9372 75.1395C82.6369 79.2242 82.2495 75.9545 85.7246 87.4995C86.9717 94.9784 92.2405 94.3655 94.2084 97.2806C97.9392 104.982 89.9829 107.835 95.654 119.923C95.9554 120.904 96.4182 121.794 96.9871 122.621C99.2819 122.507 104.073 121.902 106.284 121.563C107.516 121.367 105.727 116.168 105.752 116.17C106.845 115.916 108.582 121.029 109.658 120.701C110.962 120.292 113.281 119.492 114.5 118.955C114.542 118.958 110.585 117.556 111.863 110.66Z" fill="#3D241E"/>
<path d="M58.707 140.176C52.7387 140.176 47.3839 140.826 42.5662 141.989L38.9723 209.689H83.9462L80.4011 142.893C74.1791 141.165 67.0051 140.176 58.707 140.176Z" fill="#2D2D2D"/>
<path d="M44.0626 141.617C44.0626 141.617 44.3184 156.963 60.8052 157.125C77.2931 157.288 78.5339 142.405 78.5339 142.405C78.5339 142.405 61.459 137.965 44.0626 141.617Z" fill="#888686"/>
<path d="M0.0191413 209.689H38.9727L42.5656 141.988C-2.24802 152.801 0.0191413 208.545 0.0191413 209.689Z" fill="#2D2D2D"/>
<path d="M80.4006 142.893L83.9457 209.689H119.629C119.629 209.689 126.57 155.715 80.4006 142.893Z" fill="#2D2D2D"/>
<path d="M47.6765 125.766L48.308 133.139C56.3057 135.157 64.5571 135.401 72.1843 133.779L72.3255 123.234L47.6765 125.766Z" fill="#EF8763"/>
<path d="M48.3082 135.213L49.2677 146.415C49.2677 146.415 50.6295 152.413 60.0007 152.413C70.5043 152.413 72.0444 146.415 72.0444 146.415L72.1845 135.853C64.5573 137.475 56.3059 137.231 48.3082 135.213Z" fill="#F5CE85"/>
<path d="M97.2811 65.033C97.2811 65.033 101.422 77.7426 99.3466 96.0841C97.4319 112.998 84.9529 129.84 62.6284 131.235C42.64 132.485 25.546 124.513 19.3166 97.1242C13.0862 69.7348 22.9689 49.8015 48.6465 44.7668C73.9345 39.8089 92.4857 48.9294 97.2811 65.033Z" fill="#F5CE85"/>
<path d="M20.3607 95.6092C20.3607 95.6092 24.3516 101.837 36.7668 105.883C49.1821 109.927 52.9904 104.984 59.6412 104.984C66.293 104.984 65.2486 106.838 75.6907 107.334C86.1328 107.83 93.2092 98.6756 96.1535 93.4481C96.1535 93.4481 106.202 138.987 60.001 139C17.9885 139.011 20.3607 95.6092 20.3607 95.6092Z" fill="#3D241E"/>
<path d="M59.3412 106.874C59.3412 106.874 50.8415 107.312 50.0147 115.079C49.2515 122.248 57.4551 116.315 60.2625 116.203C63.071 116.09 70.0476 122.825 70.0179 115.416C69.9903 108.587 62.6772 106.455 59.3412 106.874Z" fill="#F5CE85"/>
<path d="M92.2315 105.843L92.7049 97.6096C92.9023 94.1699 95.749 91.4602 99.2718 91.3192C104.802 91.0962 112.065 92.5885 112.543 101.82C113.241 115.297 100.315 117.298 93.9903 110.705C92.7389 109.401 92.1286 107.628 92.2315 105.843Z" fill="#F5CE85"/>
<path d="M97.3584 108.968C97.4009 108.968 97.4444 108.959 97.4858 108.941C97.6408 108.872 97.7098 108.693 97.6386 108.542C97.6047 108.469 94.3175 101.245 99.4759 97.8864C101.288 96.7052 103.075 96.2925 104.793 96.6555C107.754 97.2839 109.537 100.048 109.555 100.076C109.645 100.217 109.834 100.26 109.98 100.173C110.124 100.086 110.169 99.9003 110.079 99.7592C110.002 99.6369 108.148 96.754 104.928 96.0675C103.041 95.6682 101.092 96.109 99.1342 97.3845C93.5374 101.03 97.0421 108.715 97.0782 108.792C97.1292 108.903 97.2417 108.968 97.3584 108.968Z" fill="#9D814C"/>
<path d="M104.951 103.078C105.045 103.078 105.137 103.036 105.198 102.956C105.3 102.824 105.271 102.634 105.135 102.535C105.083 102.497 99.912 98.8093 96.0751 102.563C95.9541 102.682 95.9541 102.872 96.0751 102.989C96.195 103.107 96.3903 103.107 96.5113 102.989C99.9736 99.6016 104.719 102.984 104.766 103.019C104.822 103.058 104.886 103.078 104.951 103.078Z" fill="#9D814C"/>
<path d="M26.9999 105.019L24.3283 95.8816C23.5567 93.2456 21.1643 91.3592 18.3611 91.2224C13.9096 91.0056 7.94234 92.4865 7.4594 101.82C6.80026 114.523 18.2475 117.03 24.8611 111.755C26.8895 110.137 27.7195 107.478 26.9999 105.019Z" fill="#F5CE85"/>
<path d="M22.6434 108.968C22.601 108.968 22.5575 108.959 22.5161 108.941C22.3611 108.872 22.2921 108.693 22.3632 108.542C22.3972 108.469 25.6844 101.245 20.5259 97.8864C18.7141 96.7052 16.9267 96.2925 15.2093 96.6555C12.248 97.2839 10.4649 100.048 10.4468 100.076C10.3566 100.217 10.1677 100.26 10.0223 100.173C9.8779 100.086 9.83332 99.9003 9.92248 99.7592C9.99996 99.6369 11.8542 96.754 15.0735 96.0675C16.9607 95.6682 18.9094 96.109 20.8677 97.3845C26.4645 101.03 22.9597 108.715 22.9236 108.792C22.8727 108.903 22.7602 108.968 22.6434 108.968Z" fill="#9D814C"/>
<path d="M15.0513 103.078C14.9568 103.078 14.8645 103.036 14.804 102.956C14.7021 102.824 14.7308 102.634 14.8677 102.535C14.9186 102.497 20.0898 98.8093 23.9268 102.563C24.0478 102.682 24.0478 102.872 23.9268 102.989C23.8068 103.107 23.6115 103.107 23.4905 102.989C20.0282 99.6016 15.2827 102.984 15.236 103.019C15.1797 103.058 15.116 103.078 15.0513 103.078Z" fill="#9D814C"/>
<path d="M62.2744 111.908C57.565 111.908 57.0194 108.083 57.0141 108.042C56.9929 107.878 57.1128 107.727 57.2816 107.707C57.4408 107.683 57.6032 107.801 57.6266 107.967C57.6467 108.12 58.1902 111.728 63.131 111.263C63.2998 111.258 63.4515 111.368 63.4675 111.533C63.4834 111.699 63.3603 111.846 63.1904 111.863C62.8688 111.893 62.5642 111.908 62.2744 111.908Z" fill="#000100"/>
<path d="M33.4108 79.6462C33.4108 79.6462 33.0542 75.6005 40.0305 77.7082C47.0061 79.8167 48.1364 81.9254 47.7364 83.8527C47.3723 85.6114 44.7231 86.2177 40.8274 84.9549C36.1518 83.4394 33.5452 81.9033 33.4108 79.6462Z" fill="#3D241E"/>
<path d="M45.9512 95.9826C45.9512 98.0306 44.5565 99.6919 42.836 99.6919C41.1165 99.6919 39.7218 98.0306 39.7218 95.9826C39.7218 93.9345 41.1165 92.2732 42.836 92.2732C44.5565 92.2732 45.9512 93.9345 45.9512 95.9826Z" fill="#000100"/>
<path d="M79.1933 95.9826C79.1933 98.0306 77.7987 99.6919 76.0781 99.6919C74.3586 99.6919 72.964 98.0306 72.964 95.9826C72.964 93.9345 74.3586 92.2732 76.0781 92.2732C77.7987 92.2732 79.1933 93.9345 79.1933 95.9826Z" fill="#000100"/>
<path d="M85.2485 82.6985C85.2485 82.6985 86.4849 78.83 79.2166 79.355C71.9477 79.8791 70.3819 81.6881 70.3488 83.6562C70.3187 85.4513 72.7692 86.6252 76.8471 86.2488C81.7419 85.7981 84.6217 84.871 85.2485 82.6985Z" fill="#3D241E"/>
<path d="M62.7808 103.416C62.6641 103.416 62.5526 103.351 62.5006 103.24C62.4295 103.087 62.4985 102.91 62.6534 102.841C62.6779 102.829 65.1446 101.713 66.2368 99.5585C67.0954 97.8651 66.828 95.3223 65.6774 94.2231C64.9864 93.5625 64.0503 93.5065 62.9644 94.0624C62.9294 94.08 62.8753 94.1111 62.8031 94.1515C59.0096 96.3033 57.2987 95.3368 56.5302 94.1464C55.1217 91.9604 56.3752 82.7424 56.5185 80.7814C56.5313 80.6155 56.682 80.4942 56.8476 80.5025C57.0174 80.5149 57.1458 80.6591 57.1331 80.825C56.7467 86.0971 55.9507 92.1169 57.0513 93.8249C57.9578 95.2311 59.7887 95.1678 62.4932 93.631C62.576 93.5843 62.6386 93.548 62.6789 93.5283C64.0025 92.8532 65.222 92.9455 66.1094 93.7917C67.4499 95.0745 67.7684 97.8931 66.7897 99.825C65.5978 102.177 63.0175 103.34 62.9082 103.389C62.8668 103.407 62.8233 103.416 62.7808 103.416Z" fill="#9D814C"/>
<path d="M30 210H29V176H30V210Z" fill="#888686"/>
<path d="M94 210H93V176H94V210Z" fill="#888686"/>
<path d="M67.7729 197.211C66.9366 198.887 66.5167 199.723 65.6825 200.14C64.8463 200.975 63.1722 200.975 61.4977 200.975C59.4074 200.975 58.1531 200.975 57.3173 200.14C56.4788 199.723 56.0601 198.887 55.2255 197.211C55.2255 197.211 54.8056 196.797 54.8056 196.375L53.1316 196.797L54.3883 200.975L56.8972 203.07C57.7318 205.161 59.4072 206 61.4975 206C62.3338 206 63.5907 205.577 64.0076 205.161C64.846 204.741 65.6822 203.906 66.1009 203.07L68.6096 200.975L69.8658 196.797L68.1926 196.375C67.7729 196.797 67.7729 197.211 67.7729 197.211ZM72.3786 168.767C69.4468 166.26 66.1012 165 61.4978 165C56.8975 165 53.5517 166.26 50.6215 168.767C48.1121 170.858 46.441 174.204 46.441 177.973C46.441 181.316 46.8565 183.825 47.6934 185.085C48.9497 187.173 49.7867 188.429 49.7867 189.264L50.2038 192.608L56.0603 195.54L57.3175 198.051C57.7322 198.051 58.1534 198.051 58.9906 198.468C59.8275 198.468 60.6638 198.468 61.498 198.468C63.5912 198.468 64.8466 198.051 66.1014 198.051L66.9367 195.54L72.7949 192.608L73.2118 189.264C73.6319 188.429 73.6319 188.008 73.6319 187.592C75.722 184.662 76.5592 181.316 76.5592 177.973C76.559 174.204 75.3051 170.858 72.3786 168.767ZM55.2256 189.264C52.7141 189.264 51.8799 187.592 51.8799 185.085C51.8799 183.825 51.8799 182.57 52.7141 182.155C53.1319 181.316 53.9716 180.9 55.2256 180.9C57.7322 180.9 58.9906 182.155 58.9906 184.663C58.9906 187.592 57.7322 189.264 55.2256 189.264ZM62.7564 193.865C62.3343 193.865 61.9165 193.865 61.498 193.446C61.078 193.865 61.078 193.865 60.6638 193.865C60.241 193.865 59.8275 193.865 59.4076 193.446C58.9906 193.446 58.9906 193.03 58.9906 192.609C58.9906 192.195 59.4076 191.358 59.8275 190.939C60.6638 190.101 61.078 189.264 61.498 188.429C61.9165 189.264 62.7564 190.101 63.1725 190.939C64.008 191.358 64.008 192.195 64.008 192.609C64.008 193.446 63.591 193.865 62.7564 193.865ZM68.193 189.264C65.6827 189.264 64.4264 187.592 64.4264 185.085C64.4264 182.57 65.6827 180.9 68.193 180.9C69.4468 180.9 70.2831 181.316 70.7017 182.155C71.5386 182.57 71.5386 183.409 71.5386 184.663C71.5385 187.592 70.2831 189.264 68.193 189.264Z" fill="#A9A9A9"/>
<path d="M148.632 1.46536C148.177 1.40059 147.714 1.52634 147.345 1.81494C146.976 2.10355 146.731 2.53138 146.663 3.0043C146.596 3.47723 146.712 3.95651 146.986 4.33672C147.26 4.71693 147.669 4.96692 148.124 5.03169C148.579 5.09647 149.042 4.97072 149.411 4.68211C149.78 4.3935 150.025 3.96568 150.093 3.49275C150.16 3.01983 150.044 2.54054 149.77 2.16033C149.496 1.78012 149.087 1.53014 148.632 1.46536ZM150.251 8.51857C150.462 7.04122 149.481 5.67983 148.061 5.47748C146.64 5.27517 145.318 6.30854 145.108 7.78589L150.251 8.51857Z" fill="#3D241E"/>
<path d="M139.524 10.1395C139.07 10.0747 138.607 10.2004 138.238 10.489C137.868 10.7776 137.623 11.2055 137.556 11.6784C137.488 12.1513 137.604 12.6306 137.878 13.0108C138.152 13.391 138.562 13.641 139.016 13.7058C139.471 13.7706 139.934 13.6448 140.303 13.3562C140.672 13.0676 140.918 12.6398 140.985 12.1669C141.052 11.6939 140.936 11.2146 140.662 10.8344C140.388 10.4542 139.979 10.2042 139.524 10.1395ZM141.144 17.1927C141.354 15.7153 140.373 14.3539 138.953 14.1516C137.533 13.9493 136.21 14.9826 136 16.46L141.144 17.1927Z" fill="#3D241E"/>
<path d="M154.441 12.2642C153.986 12.1995 153.524 12.3252 153.154 12.6138C152.785 12.9024 152.54 13.3302 152.473 13.8032C152.405 14.2761 152.521 14.7554 152.795 15.1356C153.069 15.5158 153.478 15.7658 153.933 15.8306C154.388 15.8953 154.851 15.7696 155.22 15.481C155.589 15.1924 155.834 14.7645 155.902 14.2916C155.969 13.8187 155.853 13.3394 155.579 12.9592C155.305 12.579 154.896 12.329 154.441 12.2642ZM156.061 19.3174C156.271 17.8401 155.29 16.4787 153.87 16.2764C152.449 16.074 151.127 17.1074 150.917 18.5848L156.061 19.3174Z" fill="#3D241E"/>
<line x1="147.854" y1="8.70186" x2="147.414" y2="11.7881" stroke="#3D241E" stroke-width="0.5"/>
<line x1="147.312" y1="11.9567" x2="142.64" y2="15.2756" stroke="#3D241E" stroke-width="0.5"/>
<line x1="147.376" y1="11.6164" x2="150.391" y2="16.2443" stroke="#3D241E" stroke-width="0.5"/>
<path d="M163.632 21.4654C163.177 21.4006 162.714 21.5263 162.345 21.8149C161.976 22.1036 161.731 22.5314 161.663 23.0043C161.596 23.4772 161.712 23.9565 161.986 24.3367C162.26 24.7169 162.669 24.9669 163.124 25.0317C163.579 25.0965 164.042 24.9707 164.411 24.6821C164.78 24.3935 165.025 23.9657 165.093 23.4928C165.16 23.0198 165.044 22.5405 164.77 22.1603C164.496 21.7801 164.087 21.5301 163.632 21.4654ZM165.251 28.5186C165.462 27.0412 164.481 25.6798 163.061 25.4775C161.64 25.2752 160.318 26.3085 160.108 27.7859L165.251 28.5186Z" fill="#3D241E"/>
<path d="M154.524 30.1395C154.07 30.0747 153.607 30.2004 153.238 30.489C152.868 30.7776 152.623 31.2055 152.556 31.6784C152.488 32.1513 152.604 32.6306 152.878 33.0108C153.152 33.391 153.562 33.641 154.016 33.7058C154.471 33.7706 154.934 33.6448 155.303 33.3562C155.672 33.0676 155.918 32.6398 155.985 32.1669C156.052 31.6939 155.936 31.2146 155.662 30.8344C155.388 30.4542 154.979 30.2042 154.524 30.1395ZM156.144 37.1927C156.354 35.7153 155.373 34.3539 153.953 34.1516C152.533 33.9493 151.21 34.9826 151 36.46L156.144 37.1927Z" fill="#3D241E"/>
<path d="M169.441 32.2642C168.986 32.1995 168.524 32.3252 168.154 32.6138C167.785 32.9024 167.54 33.3302 167.473 33.8032C167.405 34.2761 167.521 34.7554 167.795 35.1356C168.069 35.5158 168.478 35.7658 168.933 35.8306C169.388 35.8953 169.851 35.7696 170.22 35.481C170.589 35.1924 170.834 34.7645 170.902 34.2916C170.969 33.8187 170.853 33.3394 170.579 32.9592C170.305 32.579 169.896 32.329 169.441 32.2642ZM171.061 39.3174C171.271 37.8401 170.29 36.4787 168.87 36.2764C167.449 36.074 166.127 37.1074 165.917 38.5848L171.061 39.3174Z" fill="#3D241E"/>
<line x1="162.854" y1="28.7019" x2="162.414" y2="31.7881" stroke="#3D241E" stroke-width="0.5"/>
<line x1="162.312" y1="31.9567" x2="157.64" y2="35.2756" stroke="#3D241E" stroke-width="0.5"/>
<line x1="162.376" y1="31.6164" x2="165.391" y2="36.2443" stroke="#3D241E" stroke-width="0.5"/>
<path d="M186.406 75.3232C185.996 75.2647 185.578 75.3782 185.244 75.6388C184.911 75.8994 184.69 76.2857 184.629 76.7128C184.568 77.1398 184.673 77.5726 184.92 77.9159C185.167 78.2592 185.537 78.485 185.948 78.5435C186.358 78.6019 186.776 78.4884 187.11 78.2278C187.443 77.9672 187.664 77.5809 187.725 77.1538C187.786 76.7268 187.681 76.294 187.434 75.9507C187.187 75.6074 186.817 75.3817 186.406 75.3232ZM187.869 81.692C188.059 80.358 187.173 79.1287 185.89 78.946C184.608 78.7633 183.414 79.6964 183.224 81.0304L187.869 81.692Z" fill="#3D241E"/>
<path d="M178.182 83.1556C177.772 83.0971 177.354 83.2107 177.02 83.4713C176.687 83.7319 176.466 84.1182 176.405 84.5452C176.344 84.9722 176.449 85.405 176.696 85.7483C176.943 86.0917 177.313 86.3174 177.724 86.3759C178.134 86.4344 178.552 86.3208 178.886 86.0602C179.219 85.7996 179.44 85.4133 179.501 84.9863C179.562 84.5592 179.457 84.1265 179.21 83.7831C178.963 83.4398 178.593 83.2141 178.182 83.1556ZM179.645 89.5244C179.835 88.1904 178.949 86.9611 177.666 86.7784C176.384 86.5957 175.19 87.5288 175 88.8628L179.645 89.5244Z" fill="#3D241E"/>
<path d="M191.652 85.0742C191.241 85.0157 190.823 85.1293 190.49 85.3899C190.157 85.6505 189.935 86.0368 189.874 86.4638C189.813 86.8908 189.918 87.3236 190.166 87.6669C190.413 88.0103 190.783 88.236 191.193 88.2945C191.604 88.353 192.022 88.2394 192.355 87.9788C192.688 87.7182 192.91 87.3319 192.971 86.9049C193.032 86.4778 192.927 86.0451 192.679 85.7017C192.432 85.3584 192.062 85.1327 191.652 85.0742ZM193.114 91.443C193.304 90.109 192.418 88.8797 191.136 88.697C189.853 88.5143 188.659 89.4474 188.469 90.7814L193.114 91.443Z" fill="#3D241E"/>
<line x1="185.728" y1="81.8609" x2="185.331" y2="84.6477" stroke="#3D241E" stroke-width="0.5"/>
<line x1="185.228" y1="84.8162" x2="181.01" y2="87.8131" stroke="#3D241E" stroke-width="0.5"/>
<line x1="185.293" y1="84.476" x2="188.015" y2="88.6548" stroke="#3D241E" stroke-width="0.5"/>
<path d="M193.406 162.323C192.996 162.265 192.578 162.378 192.244 162.639C191.911 162.899 191.69 163.286 191.629 163.713C191.568 164.14 191.673 164.573 191.92 164.916C192.167 165.259 192.537 165.485 192.948 165.543C193.358 165.602 193.776 165.488 194.11 165.228C194.443 164.967 194.664 164.581 194.725 164.154C194.786 163.727 194.681 163.294 194.434 162.951C194.187 162.607 193.817 162.382 193.406 162.323ZM194.869 168.692C195.059 167.358 194.173 166.129 192.89 165.946C191.608 165.763 190.414 166.696 190.224 168.03L194.869 168.692Z" fill="#3D241E"/>
<path d="M185.182 170.156C184.772 170.097 184.354 170.211 184.02 170.471C183.687 170.732 183.466 171.118 183.405 171.545C183.344 171.972 183.449 172.405 183.696 172.748C183.943 173.092 184.313 173.317 184.724 173.376C185.134 173.434 185.552 173.321 185.886 173.06C186.219 172.8 186.44 172.413 186.501 171.986C186.562 171.559 186.457 171.126 186.21 170.783C185.963 170.44 185.593 170.214 185.182 170.156ZM186.645 176.524C186.835 175.19 185.949 173.961 184.666 173.778C183.384 173.596 182.19 174.529 182 175.863L186.645 176.524Z" fill="#3D241E"/>
<path d="M198.652 172.074C198.241 172.016 197.823 172.129 197.49 172.39C197.157 172.65 196.935 173.037 196.874 173.464C196.813 173.891 196.918 174.324 197.166 174.667C197.413 175.01 197.783 175.236 198.193 175.294C198.604 175.353 199.022 175.239 199.355 174.979C199.688 174.718 199.91 174.332 199.971 173.905C200.032 173.478 199.927 173.045 199.679 172.702C199.432 172.358 199.062 172.133 198.652 172.074ZM200.114 178.443C200.304 177.109 199.418 175.88 198.136 175.697C196.853 175.514 195.659 176.447 195.469 177.781L200.114 178.443Z" fill="#3D241E"/>
<line x1="192.728" y1="168.861" x2="192.331" y2="171.648" stroke="#3D241E" stroke-width="0.5"/>
<line x1="192.228" y1="171.816" x2="188.01" y2="174.813" stroke="#3D241E" stroke-width="0.5"/>
<line x1="192.293" y1="171.476" x2="195.015" y2="175.655" stroke="#3D241E" stroke-width="0.5"/>
<path d="M191.526 186.609C191.129 186.488 190.699 186.536 190.33 186.742C189.96 186.949 189.682 187.297 189.556 187.709C189.431 188.122 189.468 188.566 189.66 188.943C189.851 189.32 190.182 189.6 190.579 189.721C190.976 189.841 191.406 189.793 191.775 189.587C192.145 189.381 192.423 189.033 192.549 188.62C192.674 188.208 192.637 187.764 192.445 187.387C192.254 187.009 191.923 186.73 191.526 186.609ZM191.994 193.127C192.386 191.838 191.7 190.487 190.46 190.11C189.221 189.732 187.898 190.471 187.506 191.76L191.994 193.127Z" fill="#3D241E"/>
<path d="M182.198 193.087C181.801 192.966 181.371 193.014 181.001 193.22C180.632 193.427 180.354 193.774 180.228 194.187C180.103 194.6 180.14 195.043 180.331 195.421C180.523 195.798 180.854 196.078 181.25 196.198C181.647 196.319 182.078 196.271 182.447 196.065C182.816 195.858 183.095 195.511 183.22 195.098C183.346 194.685 183.309 194.242 183.117 193.864C182.925 193.487 182.595 193.207 182.198 193.087ZM182.666 199.604C183.058 198.315 182.372 196.965 181.132 196.587C179.893 196.21 178.57 196.949 178.177 198.238L182.666 199.604Z" fill="#3D241E"/>
<path d="M195.213 197.049C194.817 196.928 194.386 196.976 194.017 197.183C193.647 197.389 193.369 197.737 193.244 198.15C193.118 198.562 193.155 199.006 193.347 199.383C193.539 199.76 193.869 200.04 194.266 200.161C194.663 200.282 195.093 200.234 195.463 200.027C195.832 199.821 196.11 199.473 196.236 199.061C196.361 198.648 196.324 198.204 196.133 197.827C195.941 197.45 195.61 197.17 195.213 197.049ZM195.681 203.567C196.074 202.278 195.387 200.927 194.148 200.55C192.908 200.173 191.585 200.912 191.193 202.201L195.681 203.567Z" fill="#3D241E"/>
<line x1="189.852" y1="192.965" x2="189.033" y2="195.658" stroke="#3D241E" stroke-width="0.5"/>
<line x1="188.905" y1="195.809" x2="184.277" y2="198.123" stroke="#3D241E" stroke-width="0.5"/>
<line x1="189.021" y1="195.482" x2="191.07" y2="200.029" stroke="#3D241E" stroke-width="0.5"/>
<path d="M190.406 98.3232C189.996 98.2647 189.578 98.3782 189.244 98.6388C188.911 98.8994 188.69 99.2858 188.629 99.7128C188.568 100.14 188.673 100.573 188.92 100.916C189.167 101.259 189.537 101.485 189.948 101.543C190.358 101.602 190.776 101.488 191.11 101.228C191.443 100.967 191.664 100.581 191.725 100.154C191.786 99.7268 191.681 99.294 191.434 98.9507C191.187 98.6074 190.817 98.3817 190.406 98.3232ZM191.869 104.692C192.059 103.358 191.173 102.129 189.89 101.946C188.608 101.763 187.414 102.696 187.224 104.03L191.869 104.692Z" fill="#3D241E"/>
<path d="M182.182 106.156C181.772 106.097 181.354 106.211 181.02 106.471C180.687 106.732 180.466 107.118 180.405 107.545C180.344 107.972 180.449 108.405 180.696 108.748C180.943 109.092 181.313 109.317 181.724 109.376C182.134 109.434 182.552 109.321 182.886 109.06C183.219 108.8 183.44 108.413 183.501 107.986C183.562 107.559 183.457 107.126 183.21 106.783C182.963 106.44 182.593 106.214 182.182 106.156ZM183.645 112.524C183.835 111.19 182.949 109.961 181.666 109.778C180.384 109.596 179.19 110.529 179 111.863L183.645 112.524Z" fill="#3D241E"/>
<path d="M195.652 108.074C195.241 108.016 194.823 108.129 194.49 108.39C194.157 108.65 193.935 109.037 193.874 109.464C193.813 109.891 193.918 110.324 194.166 110.667C194.413 111.01 194.783 111.236 195.193 111.294C195.604 111.353 196.022 111.239 196.355 110.979C196.688 110.718 196.91 110.332 196.971 109.905C197.032 109.478 196.927 109.045 196.679 108.702C196.432 108.358 196.062 108.133 195.652 108.074ZM197.114 114.443C197.304 113.109 196.418 111.88 195.136 111.697C193.853 111.514 192.659 112.447 192.469 113.781L197.114 114.443Z" fill="#3D241E"/>
<line x1="189.728" y1="104.861" x2="189.331" y2="107.648" stroke="#3D241E" stroke-width="0.5"/>
<line x1="189.228" y1="107.816" x2="185.01" y2="110.813" stroke="#3D241E" stroke-width="0.5"/>
<line x1="189.293" y1="107.476" x2="192.015" y2="111.655" stroke="#3D241E" stroke-width="0.5"/>
<g clip-path="url(#clip0_24_3)">
<path d="M126.99 24.2105L112.161 31.1335C110.87 31.736 110.31 33.2774 110.913 34.568L126.07 67.0359C126.673 68.3266 128.214 68.8868 129.505 68.2843L144.334 61.3613C145.625 60.7588 146.185 59.2173 145.582 57.9268L130.424 25.4588C129.822 24.1682 128.281 23.6077 126.99 24.2105ZM143.897 60.4248L129.068 67.3477C128.369 67.6736 127.553 67.4291 127.133 66.8099C127.775 67.3084 128.663 67.4463 129.449 67.0793L143.446 60.5446C144.232 60.1776 144.696 59.4082 144.727 58.5962C144.932 59.3157 144.595 60.0989 143.897 60.4248ZM118.879 30.1096C118.93 30.1603 119.007 30.1728 119.072 30.1428L121.622 28.9523C121.691 28.9202 121.73 28.8471 121.719 28.7721L121.664 28.3813C121.66 28.3571 121.642 28.3431 121.629 28.323L127.191 25.7267C128.138 25.2845 129.267 25.6949 129.709 26.6421L144.215 57.714C144.657 58.6612 144.247 59.7905 143.3 60.2327L129.303 66.7671C128.356 67.2093 127.226 66.7989 126.784 65.8517L112.279 34.7804C111.836 33.8333 112.247 32.704 113.194 32.2618L118.559 29.757C118.568 29.7818 118.57 29.8084 118.59 29.8278L118.879 30.1096ZM118.864 29.6147L121.328 28.4645L121.36 28.6944L119.034 29.7805L118.864 29.6147ZM127.046 25.4149L113.048 31.9496C112.262 32.3166 111.799 33.0859 111.768 33.898C111.563 33.1791 111.9 32.3953 112.598 32.0694L127.427 25.1464C128.125 24.8206 128.942 25.0651 129.362 25.6843C128.719 25.1864 127.832 25.0479 127.046 25.4149Z" fill="#3D241E"/>
<path d="M113.317 35.4419L125.96 62.5245C126.021 62.6537 126.174 62.7097 126.304 62.6493L141.875 55.38C142.004 55.3197 142.06 55.1658 141.999 55.0366L129.356 27.9539C129.296 27.8247 129.142 27.7687 129.012 27.8291L113.442 35.0984C113.312 35.1587 113.256 35.3126 113.317 35.4419ZM113.894 35.4574L128.997 28.4067L141.422 55.0211L126.319 62.0718L113.894 35.4574Z" fill="#3D241E"/>
<path d="M135.254 60.1348L134.356 60.554C133.925 60.7551 133.739 61.2686 133.94 61.6988L134.068 61.9723C134.268 62.4025 134.782 62.5895 135.212 62.3884L136.11 61.9692C136.541 61.7684 136.727 61.2546 136.526 60.8244L136.399 60.5509C136.198 60.1201 135.684 59.934 135.254 60.1348ZM136.214 60.9696C136.334 61.2274 136.222 61.5361 135.964 61.6565L135.066 62.0756C134.809 62.196 134.5 62.0838 134.38 61.826L134.252 61.5525C134.131 61.2947 134.244 60.986 134.502 60.8656L135.399 60.4464C135.657 60.3261 135.966 60.4383 136.086 60.6961L136.214 60.9696Z" fill="#3D241E"/>
<path d="M124.608 28.7133C124.86 28.5959 124.968 28.297 124.851 28.0456C124.734 27.7942 124.435 27.6856 124.183 27.8029C123.932 27.9203 123.823 28.2192 123.941 28.4706C124.058 28.722 124.357 28.8306 124.608 28.7133Z" fill="#3D241E"/>
<path d="M140.158 58.6962L139.845 58.8423L139.79 58.7249L139.544 59.0765L139.972 59.1139L139.918 58.999L140.231 58.8529C140.62 58.6717 140.786 58.6154 140.869 58.7927C140.955 58.9788 140.881 59.0239 140.634 59.1393L140.231 59.3276C140.188 59.3477 140.169 59.399 140.189 59.4421C140.209 59.4852 140.261 59.5038 140.304 59.4837L140.707 59.2954C140.922 59.1951 141.188 59.0706 141.025 58.7197C140.861 58.3688 140.503 58.5353 140.158 58.6962Z" fill="#3D241E"/>
<path d="M130.294 62.9493L129.533 63.3046C129.49 63.3247 129.471 63.376 129.491 63.419L129.838 64.1608C129.858 64.2039 129.909 64.2225 129.952 64.2024L130.713 63.8471C130.756 63.8269 130.775 63.7757 130.755 63.7326L130.408 62.9909C130.388 62.9478 130.337 62.9291 130.294 62.9493ZM130.562 63.7268L129.957 64.0092L129.811 63.6971L130.085 63.5694L129.957 63.2959L130.289 63.1411L130.562 63.7268Z" fill="#3D241E"/>
</g>
<g clip-path="url(#clip1_24_3)">
<path d="M160.58 89.3824L144.844 93.8765C143.474 94.2676 142.678 95.7012 143.069 97.0707L152.908 131.525C153.299 132.895 154.733 133.691 156.103 133.3L171.839 128.806C173.209 128.415 174.005 126.981 173.614 125.612L163.774 91.1575C163.383 89.788 161.95 88.9911 160.58 89.3824ZM171.555 127.812L155.819 132.306C155.078 132.518 154.31 132.147 153.993 131.47C154.549 132.063 155.403 132.34 156.238 132.102L171.091 127.86C171.926 127.621 172.505 126.935 172.663 126.138C172.752 126.881 172.296 127.601 171.555 127.812ZM151.639 93.9265C151.682 93.9846 151.756 94.0092 151.824 93.9897L154.53 93.2169C154.603 93.1961 154.654 93.1301 154.655 93.0544L154.662 92.6597C154.662 92.6353 154.646 92.6184 154.637 92.5967L160.539 90.9112C161.544 90.6242 162.594 91.2079 162.881 92.213L172.298 125.186C172.585 126.191 172.001 127.241 170.996 127.528L156.143 131.77C155.138 132.057 154.087 131.474 153.8 130.469L144.384 97.4963C144.097 96.4912 144.681 95.4408 145.686 95.1538L151.379 93.5278C151.384 93.5537 151.381 93.5803 151.398 93.6026L151.639 93.9265ZM151.703 93.4354L154.317 92.6888L154.313 92.9208L151.844 93.6259L151.703 93.4354ZM160.445 90.5805L145.591 94.8225C144.757 95.0607 144.178 95.7472 144.019 96.5442C143.93 95.802 144.387 95.0812 145.127 94.8697L160.864 90.3756C161.604 90.1641 162.372 90.5345 162.689 91.2123C162.134 90.6192 161.279 90.3422 160.445 90.5805Z" fill="#3D241E"/>
<path d="M145.305 98.3133L153.512 127.053C153.551 127.19 153.694 127.27 153.832 127.23L170.355 122.512C170.492 122.472 170.572 122.329 170.533 122.192L162.325 93.4525C162.286 93.3154 162.143 93.2358 162.006 93.275L145.482 97.9939C145.345 98.0331 145.265 98.1761 145.305 98.3133ZM145.873 98.4199L161.899 93.8429L169.965 122.086L153.938 126.663L145.873 98.4199Z" fill="#3D241E"/>
<path d="M163.067 126.161L162.114 126.433C161.657 126.564 161.392 127.041 161.522 127.498L161.605 127.788C161.735 128.245 162.213 128.51 162.67 128.38L163.623 128.108C164.079 127.977 164.345 127.499 164.214 127.043L164.131 126.753C164.001 126.296 163.523 126.031 163.067 126.161ZM163.883 127.137C163.961 127.411 163.801 127.698 163.528 127.776L162.575 128.048C162.301 128.126 162.014 127.966 161.936 127.693L161.853 127.403C161.775 127.129 161.935 126.842 162.208 126.764L163.161 126.492C163.435 126.414 163.722 126.573 163.8 126.847L163.883 127.137Z" fill="#3D241E"/>
<path d="M157.517 93.4525C157.784 93.3763 157.938 93.0983 157.862 92.8316C157.786 92.5648 157.508 92.4103 157.241 92.4865C156.975 92.5627 156.82 92.8407 156.896 93.1075C156.972 93.3742 157.25 93.5287 157.517 93.4525Z" fill="#3D241E"/>
<path d="M168.136 125.515L167.805 125.61L167.769 125.485L167.47 125.794L167.887 125.898L167.852 125.776L168.184 125.681C168.596 125.564 168.769 125.534 168.823 125.722C168.879 125.92 168.799 125.953 168.537 126.028L168.109 126.15C168.063 126.163 168.036 126.211 168.049 126.256C168.062 126.302 168.11 126.329 168.156 126.316L168.584 126.193C168.812 126.128 169.095 126.047 168.988 125.675C168.882 125.303 168.502 125.411 168.136 125.515Z" fill="#3D241E"/>
<path d="M157.724 128.157L156.917 128.387C156.871 128.401 156.845 128.448 156.858 128.494L157.082 129.281C157.095 129.327 157.143 129.353 157.189 129.34L157.997 129.11C158.042 129.096 158.069 129.049 158.056 129.003L157.831 128.216C157.818 128.17 157.77 128.144 157.724 128.157ZM157.866 128.967L157.224 129.15L157.13 128.819L157.42 128.736L157.337 128.446L157.689 128.345L157.866 128.967Z" fill="#3D241E"/>
</g>
<g clip-path="url(#clip2_24_3)">
<path d="M171.567 162.952L155.558 159.556C154.164 159.261 152.789 160.154 152.494 161.548L145.058 196.599C144.762 197.993 145.656 199.368 147.049 199.663L163.058 203.06C164.452 203.355 165.827 202.462 166.122 201.068L173.558 166.016C173.854 164.623 172.961 163.248 171.567 162.952ZM163.273 202.049L147.264 198.652C146.51 198.493 146.005 197.806 146.042 197.058C146.255 197.843 146.881 198.487 147.73 198.667L162.841 201.873C163.69 202.053 164.523 201.718 165.036 201.088C164.767 201.786 164.026 202.209 163.273 202.049ZM161.539 162.782C161.549 162.853 161.604 162.91 161.673 162.924L164.426 163.508C164.5 163.524 164.576 163.49 164.612 163.423L164.803 163.078C164.815 163.056 164.808 163.034 164.811 163.01L170.815 164.284C171.837 164.501 172.492 165.508 172.275 166.531L165.159 200.076C164.942 201.098 163.934 201.753 162.912 201.536L147.801 198.33C146.778 198.113 146.124 197.106 146.341 196.083L153.457 162.54C153.674 161.517 154.681 160.862 155.704 161.079L161.496 162.308C161.488 162.333 161.473 162.355 161.478 162.383L161.539 162.782ZM161.825 162.378L164.485 162.942L164.372 163.145L161.861 162.612L161.825 162.378ZM170.887 163.948L155.775 160.742C154.927 160.562 154.093 160.897 153.58 161.527C153.849 160.83 154.59 160.407 155.343 160.567L171.353 163.963C172.106 164.123 172.611 164.81 172.574 165.557C172.361 164.773 171.735 164.128 170.887 163.948Z" fill="#3D241E"/>
<path d="M153.888 163.693L147.685 192.93C147.655 193.07 147.745 193.207 147.884 193.237L164.694 196.803C164.834 196.833 164.971 196.743 165.001 196.604L171.203 167.366C171.233 167.226 171.144 167.089 171.004 167.06L154.194 163.493C154.055 163.464 153.917 163.553 153.888 163.693ZM154.34 164.053L170.644 167.512L164.549 196.244L148.244 192.785L154.34 164.053Z" fill="#3D241E"/>
<path d="M156.545 196.616L155.576 196.41C155.111 196.311 154.653 196.609 154.555 197.074L154.492 197.369C154.393 197.833 154.691 198.292 155.156 198.39L156.125 198.596C156.59 198.694 157.048 198.396 157.146 197.932L157.209 197.637C157.308 197.172 157.01 196.714 156.545 196.616ZM156.81 197.86C156.75 198.138 156.475 198.317 156.197 198.258L155.227 198.053C154.949 197.994 154.77 197.718 154.829 197.44L154.892 197.145C154.951 196.866 155.226 196.687 155.504 196.746L156.474 196.952C156.752 197.011 156.931 197.286 156.872 197.565L156.81 197.86Z" fill="#3D241E"/>
<path d="M166.955 165.115C167.226 165.173 167.493 164.999 167.551 164.728C167.608 164.456 167.435 164.19 167.163 164.132C166.892 164.075 166.625 164.248 166.568 164.519C166.51 164.791 166.684 165.057 166.955 165.115Z" fill="#3D241E"/>
<path d="M161.328 198.418L160.99 198.347L161.017 198.22L160.608 198.352L160.928 198.64L160.954 198.516L161.292 198.587C161.711 198.676 161.877 198.731 161.837 198.923C161.794 199.124 161.708 199.115 161.441 199.059L161.006 198.966C160.959 198.956 160.913 198.986 160.904 199.033C160.894 199.079 160.923 199.125 160.97 199.135L161.405 199.227C161.637 199.276 161.925 199.337 162.005 198.959C162.086 198.58 161.7 198.497 161.328 198.418Z" fill="#3D241E"/>
<path d="M150.89 195.878L150.069 195.704C150.022 195.694 149.976 195.724 149.967 195.77L149.797 196.571C149.787 196.617 149.816 196.663 149.863 196.673L150.685 196.847C150.731 196.857 150.777 196.827 150.787 196.781L150.957 195.98C150.967 195.934 150.937 195.888 150.89 195.878ZM150.636 196.66L149.983 196.522L150.055 196.185L150.35 196.247L150.413 195.952L150.77 196.028L150.636 196.66Z" fill="#3D241E"/>
</g>
<defs>
<clipPath id="clip0_24_3">
<rect width="41" height="41" fill="white" transform="translate(101 36.3439) rotate(-25.0256)"/>
</clipPath>
<clipPath id="clip1_24_3">
<rect width="41" height="41" fill="white" transform="translate(133 97.2589) rotate(-15.9386)"/>
</clipPath>
<clipPath id="clip2_24_3">
<rect width="41" height="41" fill="white" transform="translate(143.509 157) rotate(11.9775)"/>
</clipPath>
</defs>
</svg>
